<?xml version="1.0" encoding="UTF-8" standalone="no"?>
<!-- Created with Inkscape (http://www.inkscape.org/) -->

<svg
   xmlns:dc="http://purl.org/dc/elements/1.1/"
   xmlns:cc="http://creativecommons.org/ns#"
   xmlns:rdf="http://www.w3.org/1999/02/22-rdf-syntax-ns#"
   xmlns:svg="http://www.w3.org/2000/svg"
   xmlns="http://www.w3.org/2000/svg"
   xmlns:sodipodi="http://sodipodi.sourceforge.net/DTD/sodipodi-0.dtd"
   xmlns:inkscape="http://www.inkscape.org/namespaces/inkscape"
   width="250"
   height="84.999992"
   id="svg2896"
   version="1.1"
   inkscape:version="0.47 r22583"
   sodipodi:docname="No-photo-editable.svg">
  <defs
     id="defs2898">
    <inkscape:perspective
       sodipodi:type="inkscape:persp3d"
       inkscape:vp_x="0 : 526.18109 : 1"
       inkscape:vp_y="0 : 1000 : 0"
       inkscape:vp_z="744.09448 : 526.18109 : 1"
       inkscape:persp3d-origin="372.04724 : 350.78739 : 1"
       id="perspective2904" />
    <inkscape:perspective
       id="perspective2869"
       inkscape:persp3d-origin="0.5 : 0.33333333 : 1"
       inkscape:vp_z="1 : 0.5 : 1"
       inkscape:vp_y="0 : 1000 : 0"
       inkscape:vp_x="0 : 0.5 : 1"
       sodipodi:type="inkscape:persp3d" />
    <inkscape:perspective
       id="perspective2969"
       inkscape:persp3d-origin="0.5 : 0.33333333 : 1"
       inkscape:vp_z="1 : 0.5 : 1"
       inkscape:vp_y="0 : 1000 : 0"
       inkscape:vp_x="0 : 0.5 : 1"
       sodipodi:type="inkscape:persp3d" />
    <inkscape:perspective
       id="perspective3074"
       inkscape:persp3d-origin="0.5 : 0.33333333 : 1"
       inkscape:vp_z="1 : 0.5 : 1"
       inkscape:vp_y="0 : 1000 : 0"
       inkscape:vp_x="0 : 0.5 : 1"
       sodipodi:type="inkscape:persp3d" />
    <inkscape:perspective
       id="perspective3132"
       inkscape:persp3d-origin="0.5 : 0.33333333 : 1"
       inkscape:vp_z="1 : 0.5 : 1"
       inkscape:vp_y="0 : 1000 : 0"
       inkscape:vp_x="0 : 0.5 : 1"
       sodipodi:type="inkscape:persp3d" />
  </defs>
  <sodipodi:namedview
     id="base"
     pagecolor="#ffffff"
     bordercolor="#666666"
     borderopacity="1.0"
     inkscape:pageopacity="0.0"
     inkscape:pageshadow="2"
     inkscape:zoom="3.5818326"
     inkscape:cx="131.21775"
     inkscape:cy="21.133135"
     inkscape:document-units="px"
     inkscape:current-layer="layer1"
     showgrid="false"
     inkscape:window-width="1280"
     inkscape:window-height="744"
     inkscape:window-x="-4"
     inkscape:window-y="-4"
     inkscape:window-maximized="1" />
  <metadata
     id="metadata2901">
    <rdf:RDF>
      <cc:Work
         rdf:about="">
        <dc:format>image/svg+xml</dc:format>
        <dc:type
           rdf:resource="http://purl.org/dc/dcmitype/StillImage" />
        <dc:title></dc:title>
      </cc:Work>
    </rdf:RDF>
  </metadata>
  <g
     inkscape:label="Capa 1"
     inkscape:groupmode="layer"
     id="layer1"
     transform="translate(507.3661,-70.269894)">
    <path
       style="fill:none;fill-opacity:1;stroke:none"
       d="m -507.3661,70.269894 250,0 0,84.999996 -250,0 0,-84.999996 z"
       id="rect2827" />
    <g
       transform="translate(-503.34461,140.67865)"
       style="font-size:40px;font-style:normal;font-variant:normal;font-weight:normal;font-stretch:normal;text-align:start;line-height:100%;writing-mode:lr-tb;text-anchor:start;fill:#000000;fill-opacity:1;stroke:none;font-family:Levenim MT;-inkscape-font-specification:Levenim MT"
       id="flowRoot2853">
      <path
         d="m 51.300781,-28.436105 -2.714844,0 0,-10.136719 c -1.8e-5,-2.395821 -0.104185,-4.029934 -0.3125,-4.902344 -0.677101,-2.825503 -2.460953,-4.238262 -5.351562,-4.238281 -1.653657,1.9e-5 -3.134776,0.543638 -4.443359,1.630859 -1.308602,1.087256 -2.171231,2.444677 -2.587891,4.072266 -0.260423,1.028658 -0.390631,2.95574 -0.390625,5.78125 l 0,7.792969 -2.734375,0 0,-21.25 2.734375,0 0,3.808593 c 2.174471,-2.903625 4.830719,-4.355447 7.96875,-4.355468 1.549464,2.1e-5 2.945947,0.393901 4.189453,1.18164 1.243471,0.787781 2.161438,1.875019 2.753906,3.261719 0.592427,1.386735 0.888651,3.525405 0.888672,6.416016 z"
         style=""
         id="path2873" />
      <path
         d="m 78.253906,-39.002512 c -2.4e-5,3.125008 -1.061221,5.758469 -3.183594,7.900391 -2.122414,2.141928 -4.746109,3.21289 -7.871093,3.212891 -3.12501,-10e-7 -5.751961,-1.067708 -7.88086,-3.203125 -2.128909,-2.135412 -3.193361,-4.772128 -3.193359,-7.910157 -2e-6,-2.942694 0.976559,-5.494775 2.929687,-7.65625 2.148431,-2.382791 4.863272,-3.574197 8.144532,-3.574218 3.268213,2.1e-5 5.976543,1.184916 8.125,3.554687 1.953102,2.161475 2.929663,4.720066 2.929687,7.675781 z m -2.773437,0.05859 c -2.2e-5,-2.343737 -0.797547,-4.365219 -2.392578,-6.064453 -1.59507,-1.6992 -3.557959,-2.548809 -5.888672,-2.548828 -2.33074,1.9e-5 -4.293629,0.849628 -5.888672,2.548828 -1.595058,1.699234 -2.392583,3.720716 -2.392578,6.064453 -5e-6,1.510426 0.358067,2.923185 1.074218,4.238281 0.742181,1.354172 1.751295,2.395838 3.027344,3.125 1.276032,0.72917 2.669259,1.093753 4.179688,1.09375 3.22915,3e-6 5.618471,-1.386715 7.167968,-4.160156 0.742167,-1.328117 1.11326,-2.760407 1.113282,-4.296875 z"
         style=""
         id="path2875" />
      <path
         d="m 118.83984,-39.119699 c -2e-5,3.098966 -1.04169,5.735682 -3.125,7.910156 -2.10939,2.213542 -4.70053,3.320312 -7.77343,3.320313 -3.37241,-10e-7 -6.21095,-1.399739 -8.515629,-4.199219 l 0,11.425781 -2.714844,0 0,-29.023437 2.714844,0 0,3.90625 c 2.161449,-2.96873 4.973949,-4.453104 8.437499,-4.453125 3.05988,2.1e-5 5.65428,1.08726 7.7832,3.261718 2.12889,2.174496 3.19334,4.791681 3.19336,7.851563 z m -2.7539,0.09766 c -2e-5,-1.510404 -0.37763,-2.942695 -1.13281,-4.296875 -0.75523,-1.35415 -1.78062,-2.405581 -3.07618,-3.154297 -1.29559,-0.748679 -2.70509,-1.123027 -4.22851,-1.123047 -2.42189,2e-5 -4.43035,0.833352 -6.02539,2.5 -1.59506,1.666682 -2.392587,3.717461 -2.392581,6.152344 -6e-6,3.385424 1.399731,5.85938 4.199221,7.421875 1.34113,0.755211 2.7604,1.132815 4.25781,1.132813 1.5104,2e-6 2.91665,-0.390623 4.21875,-1.171875 1.263,-0.768226 2.27537,-1.829422 3.03711,-3.183594 0.7617,-1.354159 1.14256,-2.779939 1.14258,-4.277344 z"
         style=""
         id="path2877" />
      <path
         d="m 142.47266,-28.436105 -2.73438,0 0,-10.136719 c -2e-5,-2.447904 -0.0977,-4.082017 -0.29297,-4.902344 -0.6771,-2.825503 -2.46095,-4.238262 -5.35156,-4.238281 -1.65366,1.9e-5 -3.13478,0.543638 -4.44336,1.630859 -1.3086,1.087256 -2.17123,2.444677 -2.58789,4.072266 -0.26042,1.015638 -0.39063,2.942719 -0.39062,5.78125 l 0,7.792969 -2.73438,0 0,-29.453125 2.73438,0 0,12.011718 c 2.20051,-2.903625 4.85676,-4.355447 7.96874,-4.355468 1.54947,2.1e-5 2.94595,0.393901 4.18946,1.18164 1.24347,0.787781 2.16144,1.871764 2.7539,3.251953 0.59243,1.380225 0.88865,3.52215 0.88868,6.425782 z"
         style=""
         id="path2879" />
      <path
         d="m 169.42578,-39.002512 c -2e-5,3.125008 -1.06122,5.758469 -3.18359,7.900391 -2.12242,2.141928 -4.74611,3.21289 -7.8711,3.212891 -3.12501,-10e-7 -5.75196,-1.067708 -7.88086,-3.203125 -2.1289,-2.135412 -3.19336,-4.772128 -3.19336,-7.910157 0,-2.942694 0.97656,-5.494775 2.92969,-7.65625 2.14843,-2.382791 4.86327,-3.574197 8.14453,-3.574218 3.26822,2.1e-5 5.97655,1.184916 8.125,3.554687 1.95311,2.161475 2.92967,4.720066 2.92969,7.675781 z m -2.77344,0.05859 c -2e-5,-2.343737 -0.79754,-4.365219 -2.39257,-6.064453 -1.59507,-1.6992 -3.55796,-2.548809 -5.88868,-2.548828 -2.33074,1.9e-5 -4.29362,0.849628 -5.88867,2.548828 -1.59506,1.699234 -2.39258,3.720716 -2.39258,6.064453 0,1.510426 0.35807,2.923185 1.07422,4.238281 0.74218,1.354172 1.7513,2.395838 3.02735,3.125 1.27603,0.72917 2.66926,1.093753 4.17968,1.09375 3.22915,3e-6 5.61847,-1.386715 7.16797,-4.160156 0.74217,-1.328117 1.11326,-2.760407 1.11328,-4.296875 z"
         style=""
         id="path2881" />
      <path
         d="m 183.95703,-47.342355 -4.33594,0 0,18.90625 -2.7539,0 0,-18.90625 -3.73047,0 0,-2.34375 3.73047,0 0,-7.890625 2.7539,0 0,7.890625 4.33594,0 z"
         style=""
         id="path2883" />
      <path
         d="m 209.19141,-39.002512 c -3e-5,3.125008 -1.06122,5.758469 -3.1836,7.900391 -2.12241,2.141928 -4.74611,3.21289 -7.87109,3.212891 -3.12501,-10e-7 -5.75196,-1.067708 -7.88086,-3.203125 -2.12891,-2.135412 -3.19336,-4.772128 -3.19336,-7.910157 0,-2.942694 0.97656,-5.494775 2.92969,-7.65625 2.14843,-2.382791 4.86327,-3.574197 8.14453,-3.574218 3.26821,2.1e-5 5.97654,1.184916 8.125,3.554687 1.9531,2.161475 2.92966,4.720066 2.92969,7.675781 z m -2.77344,0.05859 c -2e-5,-2.343737 -0.79755,-4.365219 -2.39258,-6.064453 -1.59507,-1.6992 -3.55796,-2.548809 -5.88867,-2.548828 -2.33074,1.9e-5 -4.29363,0.849628 -5.88867,2.548828 -1.59506,1.699234 -2.39259,3.720716 -2.39258,6.064453 -1e-5,1.510426 0.35807,2.923185 1.07422,4.238281 0.74218,1.354172 1.75129,2.395838 3.02734,3.125 1.27603,0.72917 2.66926,1.093753 4.17969,1.09375 3.22915,3e-6 5.61847,-1.386715 7.16797,-4.160156 0.74216,-1.328117 1.11326,-2.760407 1.11328,-4.296875 z"
         style=""
         id="path2885" />
    </g>
    <g
       transform="translate(-532.81727,140.67865)"
       style="font-size:40px;font-style:normal;font-variant:normal;font-weight:normal;font-stretch:normal;text-align:start;line-height:100%;writing-mode:lr-tb;text-anchor:start;fill:#000000;fill-opacity:1;stroke:none;font-family:Levenim MT;-inkscape-font-specification:Levenim MT"
       id="flowRoot2853-2">
      <path
         d="m 45.8125,-23.065012 c -1.6e-5,0.924473 -0.559911,1.386712 -1.679688,1.386719 -1.953137,-7e-6 -3.574229,-0.729172 -4.863281,-2.1875 -1.250008,-1.393232 -1.875007,-3.079428 -1.875,-5.058594 l 0,-6.054687 c -7e-6,-1.184888 -0.35808,-2.200512 -1.074219,-3.046875 -0.716151,-0.846344 -1.65365,-1.321604 -2.8125,-1.425781 -1.106773,-0.09114 -1.660158,-0.579416 -1.660156,-1.464844 -2e-6,-0.716133 0.50781,-1.197903 1.523438,-1.445313 1.380203,-0.338527 2.343744,-0.787745 2.890625,-1.347656 0.755201,-0.781234 1.132805,-1.822899 1.132812,-3.125 l 0,-6.054687 c -7e-6,-1.979141 0.624992,-3.671847 1.875,-5.078125 1.302073,-1.458303 2.929675,-2.187469 4.882813,-2.1875 1.106755,3.1e-5 1.66014,0.468781 1.660156,1.40625 -1.6e-5,0.820342 -0.589208,1.289091 -1.767578,1.40625 -1.178399,0.117216 -2.112643,0.598986 -2.802735,1.445312 -0.690114,0.846381 -1.035166,1.855495 -1.035156,3.027344 l 0,6.035156 c -1e-5,1.367205 -0.227875,2.496761 -0.683594,3.388672 -0.455738,0.891941 -1.236987,1.735039 -2.34375,2.529297 2.01822,1.445323 3.027334,3.424488 3.027344,5.9375 l 0,6.035156 c -1e-5,1.158854 0.348297,2.167967 1.044922,3.027344 0.696602,0.859372 1.617826,1.341142 2.763672,1.445312 1.197901,0.104163 1.796859,0.572913 1.796875,1.40625 z"
         id="path3156" />
      <path
         d="m 269.05469,-40.916574 c -2e-5,0.716158 -0.52085,1.204438 -1.5625,1.464844 -1.38022,0.325531 -2.33725,0.78126 -2.8711,1.367187 -0.75521,0.820322 -1.13282,1.855477 -1.13281,3.105469 l 0,6.054687 c -10e-6,1.979166 -0.62501,3.665362 -1.875,5.058594 -1.28907,1.458328 -2.91016,2.187493 -4.86328,2.1875 -1.10677,-7e-6 -1.66016,-0.462246 -1.66016,-1.386719 0,-0.833337 0.59896,-1.302087 1.79688,-1.40625 1.14583,-0.10417 2.07682,-0.592451 2.79297,-1.464843 0.67708,-0.833335 1.01562,-1.835938 1.01562,-3.007813 l 0,-6.035156 c 0,-1.3802 0.22786,-2.519522 0.6836,-3.417969 0.45572,-0.898426 1.23697,-1.738269 2.34375,-2.519531 -1.1198,-0.794258 -1.90431,-1.634101 -2.35352,-2.519531 -0.44922,-0.885401 -0.67383,-2.018212 -0.67383,-3.398438 l 0,-6.035156 c 0,-1.171849 -0.34506,-2.180963 -1.03515,-3.027344 -0.69011,-0.846326 -1.61459,-1.328096 -2.77344,-1.445312 -1.19792,-0.117159 -1.79688,-0.585908 -1.79688,-1.40625 0,-0.937469 0.55339,-1.406219 1.66016,-1.40625 1.96614,3.1e-5 3.59374,0.729197 4.88281,2.1875 1.23697,1.406278 1.85546,3.098984 1.85547,5.078125 l 0,6.054687 c -10e-6,1.184913 0.36132,2.200537 1.08399,3.046875 0.72264,0.846369 1.6634,1.315118 2.82226,1.40625 1.10676,0.09116 1.66014,0.579441 1.66016,1.464844 z"
         id="path3172" />
    </g>
  </g>
</svg>
